<svg width="45" height="45" viewBox="0 0 45 45" fill="none" xmlns="http://www.w3.org/2000/svg">
<g id="icon">
<circle id="Ellipse 16" cx="22.5" cy="22.5" r="22.5" fill="#DEE2E7"/>
<path id="&#240;&#159;&#148;&#185;Icon Color" fill-rule="evenodd" clip-rule="evenodd" d="M28.125 18.75H27.1875V16.875C27.1875 14.2875 25.0875 12.1875 22.5 12.1875C19.9125 12.1875 17.8125 14.2875 17.8125 16.875V18.75H16.875C15.8438 18.75 15 19.5938 15 20.625V30C15 31.0312 15.8438 31.875 16.875 31.875H28.125C29.1562 31.875 30 31.0312 30 30V20.625C30 19.5938 29.1562 18.75 28.125 18.75ZM22.5 27.1875C21.4688 27.1875 20.625 26.3438 20.625 25.3125C20.625 24.2812 21.4688 23.4375 22.5 23.4375C23.5312 23.4375 24.375 24.2812 24.375 25.3125C24.375 26.3438 23.5312 27.1875 22.5 27.1875ZM19.6875 18.75V16.875C19.6875 15.3188 20.9437 14.0625 22.5 14.0625C24.0562 14.0625 25.3125 15.3188 25.3125 16.875V18.75H19.6875Z" fill="#8B96A5"/>
</g>
</svg>
