<svg width="45" height="45" viewBox="0 0 45 45" fill="none" xmlns="http://www.w3.org/2000/svg">
<g id="icon">
<circle id="Ellipse 16" cx="22.5" cy="22.5" r="22.5" fill="#DEE2E7"/>
<path id="&#240;&#159;&#148;&#185;Icon Color" fill-rule="evenodd" clip-rule="evenodd" d="M30 14.0625H15C13.9688 14.0625 13.1344 14.9062 13.1344 15.9375L13.125 32.8125L16.875 29.0625H30C31.0312 29.0625 31.875 28.2188 31.875 27.1875V15.9375C31.875 14.9062 31.0312 14.0625 30 14.0625ZM17.8125 20.625H27.1875C27.7031 20.625 28.125 21.0469 28.125 21.5625C28.125 22.0781 27.7031 22.5 27.1875 22.5H17.8125C17.2969 22.5 16.875 22.0781 16.875 21.5625C16.875 21.0469 17.2969 20.625 17.8125 20.625ZM23.4375 25.3125H17.8125C17.2969 25.3125 16.875 24.8906 16.875 24.375C16.875 23.8594 17.2969 23.4375 17.8125 23.4375H23.4375C23.9531 23.4375 24.375 23.8594 24.375 24.375C24.375 24.8906 23.9531 25.3125 23.4375 25.3125ZM27.1875 19.6875H17.8125C17.2969 19.6875 16.875 19.2656 16.875 18.75C16.875 18.2344 17.2969 17.8125 17.8125 17.8125H27.1875C27.7031 17.8125 28.125 18.2344 28.125 18.75C28.125 19.2656 27.7031 19.6875 27.1875 19.6875Z" fill="#8B96A5"/>
</g>
</svg>
