<svg width="45" height="45" viewBox="0 0 45 45" fill="none" xmlns="http://www.w3.org/2000/svg">
<g id="icon">
<circle id="Ellipse 16" cx="22.5" cy="22.5" r="22.5" fill="#DEE2E7"/>
<path id="&#240;&#159;&#148;&#185; Icon Color" fill-rule="evenodd" clip-rule="evenodd" d="M29.5312 18.75H27.1875V16.875C27.1875 15.8438 26.3438 15 25.3125 15H14.0625C13.0312 15 12.1875 15.8438 12.1875 16.875V25.3125C12.1875 26.3438 13.0312 27.1875 14.0625 27.1875C14.0625 28.7437 15.3188 30 16.875 30C18.4313 30 19.6875 28.7437 19.6875 27.1875H25.3125C25.3125 28.7437 26.5688 30 28.125 30C29.6812 30 30.9375 28.7437 30.9375 27.1875H31.875C32.3906 27.1875 32.8125 26.7656 32.8125 26.25V23.1281C32.8125 22.725 32.6812 22.3312 32.4375 22.0031L30.2812 19.125C30.1031 18.8906 29.8219 18.75 29.5312 18.75ZM16.875 28.125C16.3594 28.125 15.9375 27.7031 15.9375 27.1875C15.9375 26.6719 16.3594 26.25 16.875 26.25C17.3906 26.25 17.8125 26.6719 17.8125 27.1875C17.8125 27.7031 17.3906 28.125 16.875 28.125ZM29.5312 20.1562L31.3687 22.5H27.1875V20.1562H29.5312ZM28.125 28.125C27.6094 28.125 27.1875 27.7031 27.1875 27.1875C27.1875 26.6719 27.6094 26.25 28.125 26.25C28.6406 26.25 29.0625 26.6719 29.0625 27.1875C29.0625 27.7031 28.6406 28.125 28.125 28.125Z" fill="#8B96A5"/>
</g>
</svg>
