<svg width="128" height="128" viewBox="0 0 128 128" fill="none" xmlns="http://www.w3.org/2000/svg">
<g clip-path="url(#clip0_572_16851)">
<path fill-rule="evenodd" clip-rule="evenodd" d="M109.402 18.5952C97.5369 6.65184 81.3849 -0.0446652 64.5502 0.000224237C29.5979 0.000224237 1.15213 28.443 1.13997 63.4043C1.12505 74.5312 4.04469 85.4651 9.60437 95.1035L0.60791 127.964L34.2223 119.147C43.5185 124.212 53.9364 126.866 64.523 126.866H64.5502C99.4964 126.866 127.945 98.4203 127.957 63.4592C128.012 46.6266 121.33 30.4718 109.402 18.5952ZM93.458 76.6693C91.874 75.8757 84.0846 72.0453 82.6313 71.5008C81.178 70.9568 80.123 70.7072 79.0681 72.2944C78.0132 73.8816 74.9758 77.448 74.0516 78.5061C73.1273 79.5637 72.203 79.6944 70.6185 78.9013C69.0345 78.1077 63.93 76.4352 57.8766 71.0389C53.167 66.8368 49.9715 61.6501 49.0594 60.0629C48.1473 58.4757 48.9621 57.6304 49.7557 56.8277C50.4671 56.1195 51.3397 54.9792 52.1302 54.0523C52.9207 53.1248 53.1883 52.4681 53.714 51.41C54.2404 50.352 53.9785 49.4277 53.5833 48.6341C53.1883 47.8406 50.0171 40.042 48.6976 36.8709C47.4115 33.7819 46.1072 34.1984 45.1343 34.1346C44.2222 34.089 43.1519 34.0798 42.0939 34.0798C40.4703 34.1223 38.9383 34.8409 37.8678 36.0622C36.4175 37.6492 32.3252 41.4801 32.3252 49.2787C32.3252 57.0773 38.0015 64.6112 38.792 65.6693C39.5826 66.7275 49.9654 82.7291 65.8516 89.5941C68.802 90.8667 71.8169 91.9829 74.8846 92.9387C78.6788 94.1547 82.1326 93.9755 84.8628 93.568C87.9033 93.112 94.2366 89.7339 95.5588 86.0336C96.8814 82.3339 96.8788 79.1595 96.4713 78.4997C96.0638 77.84 95.042 77.4752 93.458 76.6816V76.6693Z" fill="#2566AF"/>
</g>
<defs>
<clipPath id="clip0_572_16851">
<rect width="128" height="128" fill="white"/>
</clipPath>
</defs>
</svg>
